Coordinates
version=1
nRows=16
nColumns=40
inDegrees=yes

Units are S.I. units (second, meters, Newtons, ...)
If the header above contains a line with 'inDegrees', this indicates whether rotational values are in degrees (yes) or radians (no).

endheader
time	pelvis_tilt	pelvis_list	pelvis_rotation	pelvis_tx	pelvis_ty	pelvis_tz	hip_flexion_r	hip_adduction_r	hip_rotation_r	knee_angle_r	knee_angle_r_beta	ankle_angle_r	subtalar_angle_r	mtp_angle_r	hip_flexion_l	hip_adduction_l	hip_rotation_l	knee_angle_l	knee_angle_l_beta	ankle_angle_l	subtalar_angle_l	mtp_angle_l	lumbar_extension	lumbar_bending	lumbar_rotation	arm_flex_r	arm_add_r	arm_rot_r	elbow_flex_r	pro_sup_r	wrist_flex_r	wrist_dev_r	arm_flex_l	arm_add_l	arm_rot_l	elbow_flex_l	pro_sup_l	wrist_flex_l	wrist_dev_l
      6.27500000	    -28.93087050	     -0.33368551	      5.45251481	     -0.38271030	      0.83641686	     -0.73545884	     64.81668090	     -1.76489184	    -10.55468627	     64.31179654	      1.12245260	     15.04552400	      0.00000000	      0.00000000	     34.93777944	     -5.06359072	      5.68854242	     87.28424691	      1.52339749	     -7.37103368	      0.00000000	      0.00000000	      1.80348963	      2.56280911	     -5.19901748	     89.94967556	     -4.95380104	     11.18001005	     49.04502840	     70.29175743	      0.00000000	      0.00000000	     89.93139444	     -7.06283818	     10.88522217	     47.31478327	     78.10131961	      0.00000000	      0.00000000
      6.28000000	    -28.98616782	     -0.41142017	      5.45121836	     -0.38304423	      0.83518646	     -0.73528482	     65.02697636	     -1.72994923	    -10.62968436	     64.56240629	      1.12682656	     15.17046001	      0.00000000	      0.00000000	     34.98630923	     -5.14474435	      5.76122766	     87.34027541	      1.52437538	     -7.53417214	      0.00000000	      0.00000000	      1.79298209	      2.63550045	     -5.19126284	     89.94994566	     -4.97156627	     11.87075795	     49.39615394	     63.82101290	      0.00000000	      0.00000000	     89.93223290	     -7.16590802	     11.86604094	     47.66954882	     70.01675359	      0.00000000	      0.00000000
      6.28500000	    -29.08507919	     -0.41953628	      5.48757559	     -0.38330655	      0.83397727	     -0.73521173	     65.27486127	     -1.75110418	    -10.59356743	     64.80907258	      1.13113170	     15.27212982	      0.00000000	      0.00000000	     35.04865672	     -5.16196320	      5.76863433	     87.35034874	      1.52455119	     -7.52598771	      0.00000000	      0.00000000	      1.82562397	      2.61504309	     -5.17783405	     89.95021580	     -4.96086119	     11.11030507	     49.30087296	     69.34130559	      0.00000000	      0.00000000	     89.93249143	     -6.95975434	     10.86426770	     47.42137743	     77.52173879	      0.00000000	      0.00000000
      6.29000000	    -29.20070747	     -0.42327881	      5.48725191	     -0.38364545	      0.83274825	     -0.73505532	     65.55566152	     -1.77904384	    -10.61263598	     65.08968508	      1.13602931	     15.49474981	      0.00000000	      0.00000000	     35.14846995	     -5.11170322	      5.86175436	     87.38900588	      1.52522588	     -7.65520801	      0.00000000	      0.00000000	      1.86153718	      2.59424787	     -5.15609887	     89.95042788	     -4.99148759	     11.67310370	     49.67649798	     63.68134480	      0.00000000	      0.00000000	     89.93294509	     -6.92489508	     11.36467128	     47.70627434	     71.14055123	      0.00000000	      0.00000000
      6.29500000	    -29.25195484	     -0.50314682	      5.52438405	     -0.38395192	      0.83156043	     -0.73491327	     65.76717821	     -1.78476512	    -10.69930682	     65.36517451	      1.14083751	     15.58064309	      0.00000000	      0.00000000	     35.18974424	     -5.18551667	      5.94981348	     87.42293778	      1.52581811	     -7.67089322	      0.00000000	      0.00000000	      1.84176246	      2.65625616	     -5.18002220	     89.95078388	     -4.93007679	     10.90077364	     49.31484162	     70.16496958	      0.00000000	      0.00000000	     89.93358130	     -6.86260374	     10.62889219	     47.59808923	     77.89653061	      0.00000000	      0.00000000
      6.30000000	    -29.25791998	     -0.38267775	      5.48502719	     -0.38410042	      0.83035246	     -0.73486934	     65.97191026	     -1.88314997	    -10.65277742	     65.77307864	      1.14795678	     15.71380690	      0.00000000	      0.00000000	     35.04924788	     -5.09898083	      5.83610679	     87.36566244	      1.52481846	     -7.50591043	      0.00000000	      0.00000000	      1.78872597	      2.54257352	     -5.08385284	     89.95104012	     -4.85926631	     11.30383517	     49.78248516	     63.44154544	      0.00000000	      0.00000000	     89.93426024	     -6.60879289	     10.90580336	     47.61094145	     69.58909256	      0.00000000	      0.00000000
      6.30500000	    -29.45772627	     -0.57036196	      5.57848499	     -0.38459506	      0.82909003	     -0.73468019	     66.28829694	     -1.84189597	    -10.77625922	     65.89516013	      1.15008751	     15.81868323	      0.00000000	      0.00000000	     35.34060705	     -5.22587189	      6.07051278	     87.41966829	      1.52576104	     -7.86583401	      0.00000000	      0.00000000	      1.92024841	      2.68782985	     -5.18889165	     89.95138943	     -4.89368373	     10.66529919	     49.64958728	     70.25095265	      0.00000000	      0.00000000	     89.93433343	     -6.78730178	     10.49942331	     47.73533928	     77.95825697	      0.00000000	      0.00000000
      6.31000000	    -29.55231137	     -0.60683035	      5.62584353	     -0.38497894	      0.82777158	     -0.73457777	     66.56082081	     -1.89450712	    -10.83191078	     66.21123316	      1.15560402	     15.99772302	      0.00000000	      0.00000000	     35.43481687	     -5.23243657	      6.15048429	     87.42561827	      1.52586489	     -7.96154882	      0.00000000	      0.00000000	      1.95329868	      2.68326171	     -5.18697332	     89.95170397	     -4.96998994	     11.36333896	     50.06330560	     62.74538745	      0.00000000	      0.00000000	     89.93494815	     -6.65387893	     11.16257113	     47.98335211	     69.31583017	      0.00000000	      0.00000000
      6.31500000	    -29.64236139	     -0.74016674	      5.69880054	     -0.38533565	      0.82654357	     -0.73448698	     66.77247946	     -1.90950232	    -10.97076655	     66.39355040	      1.15878606	     16.09342980	      0.00000000	      0.00000000	     35.54588312	     -5.30781776	      6.32809388	     87.43254994	      1.52598587	     -8.17683083	      0.00000000	      0.00000000	      1.99181934	      2.80489962	     -5.25806307	     89.95195407	     -5.01813265	     11.67870986	     50.39322579	     58.98414041	      0.00000000	      0.00000000	     89.93515942	     -6.75815352	     11.81118805	     48.33192077	     64.45371990	      0.00000000	      0.00000000
      6.32000000	    -29.69499545	     -0.68157127	      5.67771832	     -0.38556168	      0.82536951	     -0.73430544	     67.02017456	     -1.95088895	    -10.92177891	     66.74174167	      1.16486314	     16.12442344	      0.00000000	      0.00000000	     35.50911877	     -5.27047512	      6.27974488	     87.38873225	      1.52522111	     -8.04753299	      0.00000000	      0.00000000	      1.94840299	      2.73324175	     -5.21088958	     89.95240673	     -4.93066963	     10.59902888	     49.84435509	     69.61120851	      0.00000000	      0.00000000	     89.93559314	     -6.64707751	     10.27123640	     47.98154210	     78.11030612	      0.00000000	      0.00000000
      6.32500000	    -29.64368826	     -0.50904761	      5.65472574	     -0.38564553	      0.82423962	     -0.73425712	     67.16016946	     -2.02682578	    -10.69245189	     67.09748684	      1.17107207	     16.05469250	      0.00000000	      0.00000000	     35.27738133	     -5.10933466	      6.18777836	     87.28428820	      1.52339821	     -7.72211934	      0.00000000	      0.00000000	      1.81971176	      2.54268251	     -5.17462176	     89.95284787	     -4.78717748	     10.63139063	     50.05448287	     65.54873189	      0.00000000	      0.00000000	     89.93618016	     -6.43760932	     10.25435140	     47.99777901	     73.28881877	      0.00000000	      0.00000000
      6.33000000	    -29.85851089	     -0.73867654	      5.76334275	     -0.38617183	      0.82284987	     -0.73409170	     67.50749321	     -2.08271200	    -11.05508609	     67.31321731	      1.17483727	     16.29654700	      0.00000000	      0.00000000	     35.61128375	     -5.29286956	      6.40014239	     87.32079956	      1.52403546	     -8.21206219	      0.00000000	      0.00000000	      1.97954436	      2.76167392	     -5.25612091	     89.95296716	     -4.84895624	     10.29533551	     50.19295725	     69.64155034	      0.00000000	      0.00000000	     89.93641502	     -6.58961332	     10.13650604	     48.13615188	     78.05105313	      0.00000000	      0.00000000
      6.33500000	    -29.94543436	     -0.79574530	      5.78720879	     -0.38641538	      0.82158128	     -0.73392108	     67.74858803	     -2.09811409	    -11.11838262	     67.58228044	      1.17953331	     16.45872360	      0.00000000	      0.00000000	     35.65867522	     -5.34987267	      6.48291887	     87.25584837	      1.52290185	     -8.24726427	      0.00000000	      0.00000000	      2.00411498	      2.79569816	     -5.23974169	     89.95327994	     -4.89053076	     10.74381817	     50.41596645	     64.80881639	      0.00000000	      0.00000000	     89.93673932	     -6.55755644	     10.63799546	     48.38072224	     72.55965120	      0.00000000	      0.00000000
      6.34000000	    -29.92086027	     -0.90503173	      5.86159921	     -0.38650839	      0.82034871	     -0.73376432	     67.86499299	     -2.13618412	    -11.28151987	     67.87264965	      1.18460121	     16.67515622	      0.00000000	      0.00000000	     35.61054374	     -5.45989293	      6.59453673	     87.21076174	      1.52211494	     -8.34382448	      0.00000000	      0.00000000	      1.92862223	      2.88223847	     -5.30102732	     89.95344060	     -4.96252543	     11.12096057	     50.76036617	     60.91499115	      0.00000000	      0.00000000	     89.93716230	     -6.57118413	     11.03686814	     48.62886706	     68.09772622	      0.00000000	      0.00000000
      6.34500000	    -30.07122744	     -0.85574006	      5.86099303	     -0.38664136	      0.81906736	     -0.73366284	     68.17819914	     -2.21880223	    -11.26960398	     68.17677088	      1.18990913	     16.68257438	      0.00000000	      0.00000000	     35.66785442	     -5.41917130	      6.55748890	     87.12662246	      1.52064643	     -8.26355192	      0.00000000	      0.00000000	      2.01481615	      2.80428344	     -5.26719641	     89.95367249	     -4.93705983	     10.22269072	     50.50637195	     69.40510056	      0.00000000	      0.00000000	     89.93735877	     -6.45405629	      9.97168702	     48.38232626	     78.05561711	      0.00000000	      0.00000000
      6.35000000	    -30.20672157	     -0.83158443	      5.81722442	     -0.38702954	      0.81775853	     -0.73349163	     68.48527961	     -2.09803561	    -11.02730417	     68.41503092	      1.19406755	     16.89028231	      0.00000000	      0.00000000	     35.75820328	     -5.43242354	      6.51782190	     87.08743255	      1.51996244	     -8.31789443	      0.00000000	      0.00000000	      2.09511249	      2.74346753	     -5.20000457	     89.95393881	     -4.89249477	     10.46824972	     50.51207646	     65.91840502	      0.00000000	      0.00000000	     89.93762387	     -6.39555154	     10.31250785	     48.53973443	     73.72250323	      0.00000000	      0.00000000
